<?xml version="1.0" standalone="no"?>
<!DOCTYPE svg PUBLIC "-//W3C//DTD SVG 20010904//EN"
 "http://www.w3.org/TR/2001/REC-SVG-20010904/DTD/svg10.dtd">
<svg version="1.0" xmlns="http://www.w3.org/2000/svg"
 width="342.000000pt" height="346.000000pt" viewBox="0 0 342.000000 346.000000"
 preserveAspectRatio="xMidYMid meet">

<g transform="translate(0.000000,346.000000) scale(0.100000,-0.100000)"
fill="#000000" stroke="none">
<path d="M1555 3153 c-22 -3 -44 -9 -49 -14 -6 -5 85 -9 240 -9 220 -1 255 -3
304 -20 57 -20 120 -26 120 -12 0 9 -101 33 -214 52 -57 9 -315 11 -401 3z"/>
<path d="M1390 3118 c-378 -110 -664 -323 -857 -638 -42 -69 -83 -151 -83
-167 0 -9 -7 -24 -15 -33 -9 -10 -19 -35 -22 -56 -3 -22 -12 -46 -19 -55 -14
-16 -20 -41 -28 -124 -3 -27 -12 -72 -21 -100 -20 -61 -23 -336 -5 -391 7 -19
13 -34 15 -32 2 2 6 107 9 233 4 198 8 238 25 289 12 33 21 72 21 87 0 15 11
49 25 75 14 26 25 58 25 70 0 13 4 24 9 24 4 0 23 30 40 68 18 37 37 76 42 87
21 44 141 194 216 271 43 45 117 109 163 143 86 63 263 158 335 181 22 7 45
16 50 20 6 4 35 13 65 19 30 7 66 18 80 26 l25 14 -30 0 c-16 -1 -46 -6 -65
-11z"/>
<path d="M2192 3078 c3 -7 18 -17 34 -22 40 -12 232 -106 269 -131 196 -133
358 -308 473 -510 49 -86 113 -242 123 -299 4 -27 15 -57 24 -65 13 -14 15
-11 15 27 0 23 -7 56 -15 74 -8 18 -19 52 -25 74 -5 23 -17 47 -25 54 -8 7
-15 21 -15 31 0 10 -14 45 -32 76 -17 32 -38 71 -46 88 -33 63 -139 194 -231
286 -136 134 -290 236 -450 298 -88 34 -105 37 -99 19z"/>
<path d="M1743 2963 c-40 -2 -73 -8 -73 -14 0 -5 25 -7 61 -5 33 3 71 1 85 -4
13 -5 81 -16 150 -24 81 -10 132 -20 143 -30 9 -8 33 -17 52 -19 20 -2 49 -13
64 -25 15 -12 34 -22 42 -22 8 0 33 -10 56 -22 99 -53 154 -120 127 -153 -21
-26 -110 -45 -249 -56 -113 -8 -141 -13 -175 -33 -35 -20 -134 -120 -157 -158
-9 -15 -39 8 -39 29 0 18 -51 102 -62 103 -12 0 -9 -1522 2 -1540 9 -12 16 -9
43 23 17 20 39 37 47 37 9 0 44 -24 79 -53 87 -74 131 -88 277 -88 135 0 189
-11 204 -40 16 -28 6 -49 -47 -101 -51 -49 -152 -104 -243 -134 -30 -9 -72
-23 -93 -31 -117 -41 -424 -41 -582 1 -207 56 -349 139 -448 264 -69 87 -77
101 -67 126 27 66 32 214 29 871 l-3 680 64 3 c36 2 69 7 75 13 5 6 5 9 -1 9
-6 0 -24 11 -40 25 -27 23 -45 30 -67 26 -12 -2 25 49 61 85 49 49 83 74 101
74 10 0 26 9 36 20 10 11 33 23 52 26 19 4 37 12 39 19 3 7 25 16 50 20 24 3
48 13 52 22 6 10 34 18 88 24 43 4 97 14 119 21 40 13 39 13 -49 16 -75 2 -94
0 -115 -16 -15 -10 -50 -22 -80 -25 -29 -3 -58 -11 -65 -16 -6 -5 -54 -31
-106 -57 -52 -26 -126 -71 -165 -99 -75 -56 -222 -204 -268 -270 -147 -211
-219 -442 -218 -705 0 -153 20 -328 41 -355 4 -5 11 -28 15 -49 8 -47 91 -216
148 -301 114 -171 336 -356 512 -427 109 -44 222 -78 260 -78 22 -1 60 -6 85
-12 25 -5 79 -11 120 -12 87 -3 366 28 383 43 7 5 30 13 51 17 51 9 269 121
343 176 112 82 275 263 324 360 12 24 29 54 39 68 10 14 21 36 25 50 4 14 13
39 20 55 53 118 89 332 82 480 -7 145 -26 274 -48 324 -10 24 -19 53 -19 65 0
21 -52 131 -71 150 -5 6 -9 16 -9 23 0 20 -81 140 -137 203 -83 94 -258 250
-280 250 -5 0 -39 18 -76 40 -36 22 -71 40 -77 40 -7 0 -26 7 -43 15 -63 30
-174 57 -262 65 -49 5 -101 10 -115 13 -14 2 -58 2 -97 0z m804 -465 c77 -65
77 -65 80 -229 2 -146 17 -226 33 -184 13 33 29 116 36 183 4 36 13 70 22 79
14 14 18 12 44 -18 40 -49 88 -135 95 -172 3 -18 11 -43 18 -57 21 -41 54
-239 56 -335 4 -138 -54 -406 -101 -468 -9 -12 -21 -34 -28 -50 -13 -30 -57
-56 -72 -41 -18 18 -28 97 -29 232 -1 75 -6 166 -12 201 -10 64 -42 141 -58
141 -5 0 -23 11 -39 25 -40 33 -102 45 -187 35 -47 -5 -78 -4 -94 4 -57 27
-85 250 -40 322 25 41 47 43 82 8 28 -27 31 -36 41 -96 5 -24 13 -39 26 -43
11 -4 25 -15 30 -26 9 -15 22 -19 68 -19 113 0 110 37 -3 42 l-70 3 4 156 c2
86 1 164 -3 175 -5 18 -15 19 -133 17 -71 -2 -134 -5 -141 -8 -10 -3 -12 -134
-10 -627 l3 -623 130 -5 c72 -3 136 -2 143 3 9 7 12 69 12 249 0 272 9 250
-98 252 l-67 1 -3 69 -3 69 88 -6 c48 -3 124 -2 168 3 43 4 85 6 92 3 17 -7
19 -683 3 -730 -6 -17 -23 -36 -38 -42 -36 -17 -526 -28 -563 -13 -15 6 -34
26 -44 44 -15 30 -16 100 -16 725 0 755 -3 725 57 772 25 20 39 21 248 21
l222 0 51 -42z m-1653 -40 c12 -45 14 -130 12 -538 -2 -267 0 -555 3 -640 8
-203 2 -285 -21 -285 -25 0 -96 71 -143 145 -42 64 -105 197 -105 220 0 7 -6
26 -14 43 -19 47 -45 198 -52 312 -5 74 -2 120 10 179 9 43 16 91 16 106 0 36
50 188 73 220 9 13 17 29 17 35 0 17 42 96 83 157 30 45 69 81 104 97 1 1 8
-23 17 -51z m1443 -1056 c3 -14 12 -37 19 -51 16 -31 8 -70 -19 -93 -29 -26
-40 -22 -70 24 -21 33 -22 68 -2 94 8 10 15 27 15 36 0 37 47 29 57 -10z"/>
<path d="M1620 2560 c-19 -6 -9 -8 38 -9 40 -1 61 3 57 9 -7 12 -59 12 -95 0z"/>
<path d="M1544 2497 c-29 -45 -71 -139 -79 -178 -4 -19 -14 -45 -21 -59 -8
-14 -23 -47 -34 -73 l-20 -48 -28 15 c-35 18 -60 55 -69 99 -3 17 -14 48 -24
67 -10 19 -28 60 -40 90 -39 94 -90 149 -74 78 4 -18 11 -55 15 -83 4 -27 22
-104 40 -170 18 -66 36 -138 41 -160 5 -22 15 -62 23 -90 32 -110 55 -203 66
-267 10 -55 16 -68 31 -68 17 0 39 49 39 91 0 9 16 78 36 155 20 76 42 168 49
204 17 82 53 231 71 292 15 50 19 138 7 138 -5 0 -17 -15 -29 -33z"/>
<path d="M3140 1735 c1 -184 3 -217 14 -203 28 38 26 382 -2 410 -9 9 -12 -41
-12 -207z"/>
<path d="M1136 1841 c-11 -17 2 -823 13 -834 13 -13 41 8 41 30 0 8 7 30 16
49 14 29 22 34 64 40 40 5 49 11 54 30 4 13 -1 40 -9 61 -9 20 -31 97 -50 171
-19 74 -41 155 -49 180 -18 58 -56 231 -56 254 0 20 -16 33 -24 19z"/>
<path d="M1568 1740 c-9 -14 -19 -47 -23 -75 -3 -27 -12 -72 -20 -100 -7 -27
-26 -104 -40 -170 -15 -66 -33 -135 -41 -153 -8 -18 -14 -51 -14 -73 0 -36 3
-41 30 -51 19 -6 38 -24 49 -47 11 -20 28 -44 40 -55 20 -18 21 -18 32 10 14
36 25 641 12 699 l-9 40 -16 -25z"/>
<path d="M3111 1445 c-24 -58 -23 -121 2 -96 9 9 29 139 22 148 -1 2 -12 -22
-24 -52z"/>
<path d="M370 1428 c0 -25 7 -54 17 -68 10 -13 18 -41 19 -62 1 -20 11 -50 22
-65 11 -15 23 -42 26 -60 4 -17 14 -37 22 -44 8 -6 14 -18 14 -26 0 -7 8 -26
18 -41 11 -15 32 -47 48 -72 46 -74 112 -149 218 -253 125 -122 266 -225 249
-181 -3 7 -9 14 -13 14 -32 0 -295 249 -374 355 -55 74 -146 229 -146 249 0 7
-7 21 -15 32 -8 10 -19 37 -25 59 -6 22 -17 54 -25 70 -7 17 -17 52 -22 79
-11 65 -33 74 -33 14z"/>
<path d="M3071 1306 c-6 -7 -14 -28 -17 -47 -4 -19 -15 -45 -26 -58 -10 -13
-18 -31 -18 -40 0 -10 -4 -21 -9 -26 -5 -6 -25 -40 -44 -76 -75 -144 -274
-356 -440 -466 -58 -39 -115 -74 -126 -78 -24 -7 -28 -25 -6 -25 18 0 112 48
135 68 8 7 53 42 98 78 132 101 342 331 342 374 0 5 11 21 23 37 13 15 27 40
31 56 3 15 11 27 16 27 5 0 14 19 21 43 6 23 17 49 24 57 17 20 29 77 17 84
-5 3 -15 0 -21 -8z"/>
<path d="M1054 522 c10 -11 31 -24 46 -27 16 -3 31 -13 34 -21 7 -18 59 -19
54 -1 -3 6 -13 14 -24 16 -10 2 -31 12 -45 22 -14 9 -38 21 -55 25 -29 7 -29
7 -10 -14z"/>
<path d="M2309 476 c-15 -7 -50 -21 -78 -31 -28 -9 -49 -21 -45 -26 10 -17 50
-9 84 16 19 14 47 25 62 25 18 0 28 5 28 15 0 19 -17 19 -51 1z"/>
<path d="M1230 440 c0 -16 47 -33 67 -25 16 6 14 9 -12 21 -37 16 -55 17 -55
4z"/>
<path d="M1357 404 c-13 -13 5 -24 41 -24 22 0 32 4 27 9 -14 13 -59 23 -68
15z"/>
<path d="M2090 403 c-44 -13 -46 -14 -27 -24 19 -11 77 -3 77 11 0 10 -31 18
-50 13z"/>
<path d="M1595 347 c25 -15 285 -14 330 1 22 8 -18 10 -160 11 -154 0 -186 -2
-170 -12z"/>
</g>
</svg>
